<svg xmlns="http://www.w3.org/2000/svg" viewBox="0 0 900 620" role="img" aria-label="الأحساء">
  <defs>
    <linearGradient id="g" x1="0" y1="0" x2="1" y2="1">
      <stop offset="0%" stop-color="#155946"/>
      <stop offset="60%" stop-color="#7d8f43"/>
      <stop offset="100%" stop-color="#d7a33d"/>
    </linearGradient>
    <filter id="shadow" x="-20%" y="-20%" width="140%" height="140%">
      <feDropShadow dx="0" dy="18" stdDeviation="22" flood-color="#000" flood-opacity=".22"/>
    </filter>
  </defs>
  <rect width="900" height="620" rx="48" fill="url(#g)"/>
  <circle cx="110" cy="95" r="70" fill="#fff" opacity=".16"/>
  <circle cx="805" cy="528" r="110" fill="#fff" opacity=".12"/>
  <path d="M0 438 C155 360 268 510 430 420 C602 325 696 410 900 316 L900 620 L0 620 Z" fill="#fff" opacity=".18"/>
  <path d="M350 445 C350 330 365 250 450 188 C535 250 550 330 550 445 Z" fill="#fff" opacity=".28"/><path d="M450 188 C390 210 335 230 285 275 M450 188 C510 210 565 230 615 275" stroke="#fff" stroke-width="22" stroke-linecap="round" opacity=".28"/><rect x="430" y="310" width="40" height="138" fill="#fff" opacity=".28"/>
  <g filter="url(#shadow)">
    <rect x="78" y="72" width="744" height="476" rx="42" fill="#ffffff" opacity=".12" stroke="#ffffff" stroke-opacity=".34"/>
  </g>
  <text x="450" y="286" text-anchor="middle" direction="rtl" unicode-bidi="bidi-override"
        font-family="Tahoma, Arial, sans-serif" font-size="68" font-weight="900" fill="#fff">الأحساء</text>
  <text x="450" y="346" text-anchor="middle" direction="rtl" unicode-bidi="bidi-override"
        font-family="Tahoma, Arial, sans-serif" font-size="29" fill="#fff" opacity=".86">واحة ونخيل وأسواق</text>
</svg>