<svg xmlns="http://www.w3.org/2000/svg" viewBox="0 0 900 620" role="img" aria-label="اكتشف السعودية">
  <defs>
    <linearGradient id="g" x1="0" y1="0" x2="1" y2="1">
      <stop offset="0%" stop-color="#0f5d4c"/>
      <stop offset="60%" stop-color="#8f4d2d"/>
      <stop offset="100%" stop-color="#d89a36"/>
    </linearGradient>
    <filter id="shadow" x="-20%" y="-20%" width="140%" height="140%">
      <feDropShadow dx="0" dy="18" stdDeviation="22" flood-color="#000" flood-opacity=".22"/>
    </filter>
  </defs>
  <rect width="900" height="620" rx="48" fill="url(#g)"/>
  <circle cx="110" cy="95" r="70" fill="#fff" opacity=".16"/>
  <circle cx="805" cy="528" r="110" fill="#fff" opacity=".12"/>
  <path d="M0 438 C155 360 268 510 430 420 C602 325 696 410 900 316 L900 620 L0 620 Z" fill="#fff" opacity=".18"/>
  <path d="M130 455 C220 285 310 365 385 240 C460 120 560 262 635 192 C690 140 760 245 810 205 L810 530 L130 530 Z" fill="#fff" opacity=".24"/><circle cx="250" cy="170" r="72" fill="#fff" opacity=".18"/><path d="M260 430 L300 265 L340 430 Z M368 430 L410 210 L455 430 Z M505 430 L540 280 L575 430 Z" fill="#fff" opacity=".32"/>
  <g filter="url(#shadow)">
    <rect x="78" y="72" width="744" height="476" rx="42" fill="#ffffff" opacity=".12" stroke="#ffffff" stroke-opacity=".34"/>
  </g>
  <text x="450" y="286" text-anchor="middle" direction="rtl" unicode-bidi="bidi-override"
        font-family="Tahoma, Arial, sans-serif" font-size="68" font-weight="900" fill="#fff">اكتشف السعودية</text>
  <text x="450" y="346" text-anchor="middle" direction="rtl" unicode-bidi="bidi-override"
        font-family="Tahoma, Arial, sans-serif" font-size="29" fill="#fff" opacity=".86">Discover Saudi Arabia</text>
</svg>