<svg xmlns="http://www.w3.org/2000/svg" viewBox="0 0 900 560" width="900" height="560">
  <defs>
    <linearGradient id="sky" x1="0" x2="1" y1="0" y2="1"><stop offset="0" stop-color="#e6f4ee"/><stop offset="1" stop-color="#f8e7c8"/></linearGradient>
    <linearGradient id="green" x1="0" x2="1"><stop offset="0" stop-color="#0f5f3a"/><stop offset="1" stop-color="#1a8b60"/></linearGradient>
  </defs>
  <rect width="900" height="560" rx="36" fill="url(#sky)"/>
  <circle cx="750" cy="115" r="58" fill="#f3c56d" opacity="0.9"/>
  <path d="M0 380 C120 300 210 350 310 260 C400 180 515 285 620 210 C705 150 790 170 900 105 L900 560 L0 560 Z" fill="#d9b16a" opacity="0.35"/>
  <path d="M0 430 C120 360 260 400 390 310 C510 230 620 340 760 250 C825 210 860 220 900 200 L900 560 L0 560 Z" fill="#0f5f3a" opacity="0.22"/>
  <rect x="96" y="205" width="98" height="220" rx="18" fill="#0f5f3a" opacity="0.95"/>
  <rect x="215" y="155" width="76" height="270" rx="18" fill="#156f48" opacity="0.95"/>
  <path d="M253 88 L291 155 L215 155 Z" fill="#c89232"/>
  <rect x="318" y="245" width="120" height="180" rx="20" fill="#0f5f3a" opacity="0.88"/>
  <rect x="510" y="255" width="190" height="170" rx="20" fill="#ffffff" opacity="0.75"/>
  <rect x="548" y="302" width="112" height="82" rx="10" fill="#1f2937"/>
  <path d="M90 428 H780" stroke="#0f5f3a" stroke-width="16" stroke-linecap="round" opacity="0.35"/>
  <path d="M735 320 C770 285 808 285 838 320" fill="none" stroke="#0f5f3a" stroke-width="18" stroke-linecap="round" opacity="0.45"/>
  <circle cx="620" cy="120" r="18" fill="#0f5f3a" opacity="0.28"/><circle cx="668" cy="147" r="12" fill="#0f5f3a" opacity="0.25"/>
</svg>
