<svg xmlns="http://www.w3.org/2000/svg" viewBox="0 0 900 520"><defs><linearGradient id="g" x1="0" x2="1" y1="0" y2="1"><stop stop-color="#dff7ff"/><stop offset="1" stop-color="#d8f0e7"/></linearGradient></defs><rect width="900" height="520" fill="url(#g)"/><circle cx="760" cy="110" r="54" fill="#f2c56d"/><path d="M0 360 C120 330 190 390 310 360 C430 330 510 390 640 360 C760 330 830 375 900 350 L900 520 L0 520 Z" fill="#0e7490" opacity=".32"/><path d="M0 410 C120 380 190 440 310 410 C430 380 510 440 640 410 C760 380 830 425 900 400 L900 520 L0 520 Z" fill="#0e7490" opacity=".48"/><path d="M455 330 C440 270 475 230 455 170" fill="none" stroke="#0f5f3a" stroke-width="16" stroke-linecap="round"/><path d="M455 235 C520 225 565 190 600 135" fill="none" stroke="#0f5f3a" stroke-width="12" stroke-linecap="round" opacity=".7"/><path d="M455 235 C390 225 345 190 310 135" fill="none" stroke="#0f5f3a" stroke-width="12" stroke-linecap="round" opacity=".7"/><rect x="150" y="255" width="85" height="120" rx="14" fill="#0f5f3a"/><rect x="250" y="220" width="65" height="155" rx="12" fill="#15764b"/><rect x="650" y="250" width="95" height="125" rx="14" fill="#0f5f3a"/></svg>
