<svg xmlns="http://www.w3.org/2000/svg" viewBox="0 0 900 520"><defs><linearGradient id="g" x1="0" x2="1" y1="0" y2="1"><stop stop-color="#ffe4bf"/><stop offset="1" stop-color="#f4c27b"/></linearGradient></defs><rect width="900" height="520" fill="url(#g)"/><circle cx="735" cy="95" r="58" fill="#f8d181"/><path d="M0 390 C140 330 260 350 420 310 C560 275 720 290 900 235 L900 520 L0 520 Z" fill="#9a5a1d" opacity=".22"/><path d="M155 390 C190 275 220 170 285 120 C330 180 335 285 360 390 Z" fill="#8f4f22" opacity=".85"/><path d="M340 390 C390 250 435 145 520 105 C590 190 625 275 645 390 Z" fill="#a76224"/><path d="M605 390 C635 300 670 230 735 190 C785 250 805 320 830 390 Z" fill="#8f4f22" opacity=".9"/><path d="M105 400 H825" stroke="#7b431b" stroke-width="18" stroke-linecap="round" opacity=".35"/></svg>
