<svg xmlns="http://www.w3.org/2000/svg" viewBox="0 0 900 520"><defs><linearGradient id="g" x1="0" x2="1" y1="0" y2="1"><stop stop-color="#f2e7ff"/><stop offset="1" stop-color="#f8e5ef"/></linearGradient></defs><rect width="900" height="520" fill="url(#g)"/><circle cx="745" cy="105" r="56" fill="#f0c56b"/><path d="M0 405 L155 280 L270 405 L430 235 L590 405 L735 295 L900 405 L900 520 L0 520 Z" fill="#7c3aed" opacity=".32"/><path d="M0 435 L185 350 L340 435 L520 330 L700 435 L900 360 L900 520 L0 520 Z" fill="#0f5f3a" opacity=".38"/><circle cx="300" cy="275" r="26" fill="#d9468f"/><circle cx="335" cy="305" r="22" fill="#ec4899"/><circle cx="270" cy="310" r="20" fill="#be185d"/><circle cx="305" cy="320" r="15" fill="#fff" opacity=".55"/><circle cx="610" cy="250" r="24" fill="#d9468f"/><circle cx="645" cy="280" r="20" fill="#ec4899"/><circle cx="580" cy="285" r="18" fill="#be185d"/></svg>
